<svg width="125" height="44" viewBox="0 0 125 44" fill="#FFF" xmlns="http://www.w3.org/2000/svg">
<path d="M15.3333 23.667V30.3337H20.3333V25.4852C20.3333 24.8157 20.7245 24.5003 21.3939 24.5003H22.6061C23.2755 24.5003 23.6667 24.8157 23.6667 25.4852V30.3337H28.6667V23.667" stroke="#FAF0E6" stroke-width="1.5" stroke-linecap="round" stroke-linejoin="round"/>
<path d="M12.8333 22.0003L21.1355 14.0117C21.3647 13.791 21.6757 13.667 22 13.667C22.3243 13.667 22.6353 13.791 22.8645 14.0117L31.1667 22.0003" stroke="#FAF0E6" stroke-width="1.5" stroke-linecap="round" stroke-linejoin="round"/>
<path d="M42.72 26.5003H50.144V24.4363H45.344V15.9723H42.72V26.5003ZM54.0851 26.6283C55.5251 26.6283 56.4211 26.0203 56.6611 24.9003H56.6771C56.6771 25.3803 56.6131 26.1003 56.5651 26.5003H58.9971V21.7003C58.9971 19.5883 57.5251 18.4683 55.0131 18.4683C52.6131 18.4683 51.2051 19.4123 51.2051 21.0123C51.2051 21.1723 51.2211 21.3483 51.2371 21.4763H53.4771C53.4611 21.3163 53.4611 21.1883 53.4611 21.1403C53.4611 20.5003 53.9891 20.1163 54.9011 20.1163C56.0211 20.1163 56.5651 20.5003 56.5651 21.4603V21.9883H53.9891C51.8931 21.9883 50.9651 22.9323 50.9651 24.2283C50.9651 25.8283 52.2451 26.6283 54.0851 26.6283ZM54.5651 24.9803C53.6851 24.9803 53.1571 24.6603 53.1571 24.0523C53.1571 23.6043 53.5571 23.3003 54.2131 23.3003H56.5651V23.4603C56.5651 24.4203 55.8291 24.9803 54.5651 24.9803ZM65.2913 26.6283C67.5473 26.6283 68.8913 25.0603 68.8913 22.3883C68.8913 19.9243 67.5633 18.4683 65.3073 18.4683C63.8993 18.4683 62.8913 19.0923 62.5873 20.1323H62.5553C62.5713 19.7483 62.6033 19.0923 62.6033 18.7243V15.4123H60.1713V26.5003H62.6033C62.5713 26.1163 62.5393 25.4763 62.5233 25.0123H62.5393C62.8273 26.0203 63.8513 26.6283 65.2913 26.6283ZM64.6673 24.7723C63.3713 24.7723 62.6033 24.0683 62.6033 22.8683V22.5003C62.6033 21.1403 63.3713 20.3243 64.6513 20.3243C65.7873 20.3243 66.4593 21.1243 66.4593 22.4683C66.4593 23.9243 65.7873 24.7723 64.6673 24.7723ZM77.8874 22.3243C77.8874 19.7323 76.3354 18.4683 74.1274 18.4683C71.4554 18.4683 69.8234 20.0203 69.8234 22.6283C69.8234 25.1403 71.4554 26.6283 74.0794 26.6283C76.3354 26.6283 77.8394 25.5723 77.8874 23.7643H75.7434C75.6794 24.5323 75.0714 24.8683 74.1274 24.8683C73.0394 24.8683 72.3834 24.3083 72.2714 23.0123H77.8874V22.3243ZM75.7434 21.7163H72.3354C72.5274 20.6763 73.1034 20.2283 74.1274 20.2283C75.1354 20.2283 75.7434 20.6923 75.7434 21.5883V21.7163ZM78.9838 26.5003H81.4158V15.4123H78.9838V26.5003Z" fill="#FFF"/>
<path d="M96.3333 23.667V30.3337H101.333V25.4852C101.333 24.8157 101.725 24.5003 102.394 24.5003H103.606C104.276 24.5003 104.667 24.8157 104.667 25.4852V30.3337H109.667V23.667" stroke="#FAF0E6" stroke-width="1.5" stroke-linecap="round" stroke-linejoin="round"/>
<path d="M93.8333 22.0003L102.135 14.0117C102.365 13.791 102.676 13.667 103 13.667C103.324 13.667 103.635 13.791 103.865 14.0117L112.167 22.0003" stroke="#FAF0E6" stroke-width="1.5" stroke-linecap="round" stroke-linejoin="round"/>
</svg>
